PathFileType	4	(X/Y/Z)	C:/Users/opensim2020/Desktop/walking_exp_matlab/subject03_walking04_straight_01.trc																																																																																																																																																							
DataRate	CameraRate	NumFrames	NumMarkers	Units	OrigDataRate	OrigDataStartFrame	OrigNumFrames																																																																																																																																																			
100	100	6	51	mm	100	868	265																																																																																																																																																			
Frame#	Time	LFHD			RFHD			LBHD			RBHD			C7			T10			CLAV			STRN			RBAK			LSHO			LUPA			LELB			LFRM			LWRA			LWRB			LFIN			RSHO			RUPA			RELB			RFRM			RWRA			RWRB			RFIN			LASI			RASI			LPSI			RPSI			LTHI			LKNE			LTIB			LANK			LHEE			LTOE			RTHI			RKNE			RTIB			RANK			RHEE			RTOE			*39			*40			*41			*42			*43			*44			*45			*46			*47			*48			*49			*50		
		X1	Y1	Z1	X2	Y2	Z2	X3	Y3	Z3	X4	Y4	Z4	X5	Y5	Z5	X6	Y6	Z6	X7	Y7	Z7	X8	Y8	Z8	X9	Y9	Z9	X10	Y10	Z10	X11	Y11	Z11	X12	Y12	Z12	X13	Y13	Z13	X14	Y14	Z14	X15	Y15	Z15	X16	Y16	Z16	X17	Y17	Z17	X18	Y18	Z18	X19	Y19	Z19	X20	Y20	Z20	X21	Y21	Z21	X22	Y22	Z22	X23	Y23	Z23	X24	Y24	Z24	X25	Y25	Z25	X26	Y26	Z26	X27	Y27	Z27	X28	Y28	Z28	X29	Y29	Z29	X30	Y30	Z30	X31	Y31	Z31	X32	Y32	Z32	X33	Y33	Z33	X34	Y34	Z34	X35	Y35	Z35	X36	Y36	Z36	X37	Y37	Z37	X38	Y38	Z38	X39	Y39	Z39	X40	Y40	Z40	X41	Y41	Z41	X42	Y42	Z42	X43	Y43	Z43	X44	Y44	Z44	X45	Y45	Z45	X46	Y46	Z46	X47	Y47	Z47	X48	Y48	Z48	X49	Y49	Z49	X50	Y50	Z50	X51	Y51	Z51
																																																																																																																																																										
133	1.32	-179.87277	1626.23645	-1236.09961	-209.6629	1625.17126	-1105.6228	-294.99643	1558.81372	-1260.22681	-319.60266	1558.05432	-1131.38867	-315.21579	1408.15637	-1197.23389	-337.49548	1095.13293	-1189.66907	-192.30937	1335.83167	-1188.87561	-142.9263	1171.37085	-1195.32764	-366.26392	1231.71021	-1103.07861	-232.3902	1372.4884	-1346.27271	-209.52075	1181.02576	-1419.2229	-168.95042	1065.76904	-1430.17468	-86.46863	968.17346	-1418.80713	-10.99061	883.62244	-1375.89246	-31.09942	868.52423	-1425.16199	31.23635	816.22162	-1409.65918	-245.81999	1358.34412	-1031.24487	-261.55466	1135.74792	-960.65753	-256.45493	1022.4715	-947.66577	-256.76138	885.48926	-943.3717	-238.07677	786.22668	-977.20673	-269.97369	785.98444	-933.20093	-259.28864	711.39478	-943.97736	-175.05391	929.1933	-1310.6626	-160.94489	938.1015	-1073.58923	-332.83411	957.24506	-1250.91895	-324.18155	966.93109	-1102.09485	-273.13489	631.82892	-1344.64136	-303.71805	454.84698	-1315.69556	-446.96964	310.19479	-1301.65027	-570.96863	144.51518	-1247.35425	-618.66595	145.33302	-1208.17371	-478.9006	25.60751	-1205.5946	-179.23904	643.21198	-1035.03503	-133.85173	469.72775	-1077.66992	-141.72331	279.97733	-1075.32751	-121.78057	65.66884	-1127.72852	-163.64049	32.80852	-1179.79016	22.09535	32.65425	-1148.69299	-282.66721	1667.57813	-1205.14453	NaN	NaN	NaN	NaN	NaN	NaN	NaN	NaN	NaN	NaN	NaN	NaN	NaN	NaN	NaN	NaN	NaN	NaN	NaN	NaN	NaN	NaN	NaN	NaN	NaN	NaN	NaN	NaN	NaN	NaN	NaN	NaN	NaN
134	1.33	-170.27632	1627.78076	-1235.68652	-199.98221	1626.51392	-1105.15479	-285.27844	1560.29248	-1259.80859	-309.84048	1559.41272	-1130.99695	-305.21985	1409.56787	-1196.42273	-327.45465	1096.80994	-1189.50745	-182.10652	1337.48267	-1188.7511	-132.60823	1173.02039	-1195.33472	-355.35513	1233.62341	-1101.67932	-222.90901	1374.58948	-1345.65515	-201.19646	1182.80823	-1418.21045	-162.19168	1067.14478	-1429.29871	-81.5977	967.62103	-1418.49316	-7.46045	881.04877	-1376.48706	-28.40204	866.73151	-1425.66138	32.66672	812.53174	-1410.73804	-234.51018	1360.48962	-1030.87561	-249.19817	1137.97021	-959.96564	-243.61273	1024.78479	-947.0285	-243.42772	887.87146	-942.47449	-224.714	788.53613	-976.30573	-256.17242	788.30133	-932.05286	-245.40755	713.48602	-943.20624	-164.36272	930.68719	-1309.78784	-150.90417	940.18524	-1073.01233	-322.12759	958.74377	-1251.01697	-313.55457	968.7887	-1102.43884	-258.87247	631.78381	-1346.11572	-286.36633	454.13757	-1318.79077	-431.90036	312.26804	-1304.12744	-559.99591	150.16217	-1249.51721	-606.93066	154.36107	-1209.88232	-477.20612	25.63124	-1206.17688	-172.23737	644.30688	-1035.08997	-129.35429	470.15952	-1076.60156	-139.43646	280.32761	-1074.92249	-121.69119	65.75828	-1127.63037	-163.91803	32.92168	-1179.37097	22.17598	32.51587	-1148.67053	NaN	NaN	NaN	NaN	NaN	NaN	NaN	NaN	NaN	NaN	NaN	NaN	NaN	NaN	NaN	NaN	NaN	NaN	NaN	NaN	NaN	NaN	NaN	NaN	NaN	NaN	NaN	NaN	NaN	NaN	NaN	NaN	NaN	NaN	NaN	NaN
135	1.34	-160.5448	1629.00037	-1235.30457	-190.1333	1627.59619	-1104.84534	-275.61057	1561.49707	-1259.46973	-300.0777	1560.4491	-1130.63708	-295.22986	1410.59021	-1195.68884	-317.59714	1098.30933	-1189.18811	-171.9845	1338.81665	-1188.64404	-122.42184	1174.44238	-1195.38684	-344.47995	1235.36877	-1100.17676	-213.49138	1376.3291	-1345.00732	-192.95088	1184.35242	-1417.19519	-155.6302	1068.13721	-1428.09412	-76.91989	966.8396	-1418.32288	-4.1512	878.37073	-1377.27222	-26.01385	864.66888	-1426.229	33.65501	808.46381	-1411.87329	-223.15152	1362.33557	-1030.79822	-236.96475	1139.99121	-959.15778	-230.88327	1026.90527	-946.22076	-229.8916	890.00555	-941.4469	-210.07573	790.93011	-974.82648	-242.10298	790.35931	-930.81805	-231.58055	715.43439	-942.00421	-154.16661	932.04303	-1308.95093	-141.16885	941.73718	-1072.33521	-311.76721	960.0791	-1250.99683	-303.32233	970.36493	-1102.42114	-244.41356	631.45416	-1347.4856	-268.46671	453.21368	-1321.17932	-415.91528	313.86063	-1306.70911	-547.83264	155.35547	-1252.06079	-594.3335	163.13394	-1212.55432	-474.96924	25.87664	-1208.11829	-165.5318	644.98639	-1034.83081	-124.66273	470.16495	-1075.95056	-136.85107	280.52951	-1074.67078	-121.65232	65.81601	-1127.78003	-163.65907	32.878	-1179.59436	22.27616	32.3383	-1148.85974	-264.18646	1673.92944	-1202.63367	NaN	NaN	NaN	NaN	NaN	NaN	NaN	NaN	NaN	NaN	NaN	NaN	NaN	NaN	NaN	NaN	NaN	NaN	NaN	NaN	NaN	NaN	NaN	NaN	NaN	NaN	NaN	NaN	NaN	NaN	NaN	NaN	NaN
136	1.35	-150.92484	1629.87512	-1234.97388	-180.3924	1628.27686	-1104.48694	-265.95798	1562.36328	-1259.09692	-290.41202	1561.15027	-1130.29016	-285.43289	1411.35571	-1194.98108	-307.73108	1099.35352	-1188.62622	-161.95107	1339.85596	-1188.62305	-112.34367	1175.46094	-1195.40979	-333.56772	1236.79456	-1098.69617	-204.19319	1377.63708	-1344.39539	-184.64824	1185.52478	-1416.3291	-149.28914	1068.5575	-1427.16968	-72.32873	965.72467	-1418.32288	-0.92538	875.41034	-1378.1897	-23.68094	862.42615	-1427.15723	34.35401	804.08533	-1413.08386	-211.86937	1363.81873	-1030.62012	-224.71347	1141.72021	-958.30963	-218.19768	1028.71594	-945.19415	-216.22539	891.83783	-940.35303	-196.41289	792.6391	-974.06622	-227.70688	792.0802	-929.58038	-217.15376	717.09314	-940.91339	-144.10785	933.15656	-1308.255	-131.46457	942.73163	-1071.81555	-301.9198	961.17749	-1250.78784	-293.21118	971.56738	-1102.24231	-229.93939	630.84204	-1348.63696	-250.2892	452.11465	-1323.64807	-399.05472	315.22195	-1308.84338	-534.44226	160.50621	-1254.74487	-580.72308	171.89034	-1215.54639	-470.37579	27.68549	-1210.66968	-159.18199	645.26831	-1034.5415	-119.85748	469.85181	-1075.59387	-134.1626	280.59634	-1074.5354	-121.50149	65.80419	-1127.99841	-163.90005	32.93364	-1179.54529	22.43731	32.17187	-1149.11414	-252.72606	1671.29749	-1204.59119	NaN	NaN	NaN	NaN	NaN	NaN	NaN	NaN	NaN	NaN	NaN	NaN	NaN	NaN	NaN	NaN	NaN	NaN	NaN	NaN	NaN	NaN	NaN	NaN	NaN	NaN	NaN	NaN	NaN	NaN	NaN	NaN	NaN
137	1.36	-141.28554	1630.50635	-1234.62598	-170.70564	1628.79102	-1104.15027	-256.31564	1562.99866	-1258.80566	-280.6593	1561.59485	-1129.95276	-275.71207	1411.84912	-1194.3269	-298.10788	1100.23059	-1187.85669	-151.99254	1340.52881	-1188.62769	-102.43938	1176.15979	-1195.49976	-322.84482	1237.87292	-1097.1886	-194.94397	1378.54846	-1343.90173	-176.35835	1186.2771	-1415.60229	-143.05185	1068.64771	-1426.4397	-67.79791	964.18817	-1418.38696	2.15315	872.02496	-1379.17554	-21.56973	859.71582	-1427.95081	34.74516	799.3219	-1414.35059	-200.68571	1364.98401	-1030.44299	-212.4668	1143.03955	-957.34583	-205.48369	1030.15784	-943.99786	-202.37344	893.29919	-939.16296	-182.29143	794.14111	-973.17004	-212.98225	793.40869	-928.33997	-202.14684	718.34161	-939.8111	-134.577	933.97729	-1307.78491	-121.96801	943.02795	-1071.38916	-292.37921	961.74426	-1250.50684	-283.35919	972.35132	-1101.87292	-215.54593	630.00787	-1349.56128	-231.67139	450.86121	-1325.38818	-381.57983	316.42477	-1310.93628	-521.10559	166.00511	-1257.51697	-567.15833	179.33832	-1218.78552	-461.70566	31.23842	-1213.73962	-153.17833	645.49768	-1034.1095	-115.09766	469.42029	-1075.19482	-131.34064	280.67368	-1074.42993	-121.29324	65.81015	-1128.22351	-163.55815	32.88265	-1179.81714	22.6713	31.9742	-1149.29785	-244.69775	1676.6123	-1203.12512	NaN	NaN	NaN	NaN	NaN	NaN	NaN	NaN	NaN	NaN	NaN	NaN	NaN	NaN	NaN	NaN	NaN	NaN	NaN	NaN	NaN	NaN	NaN	NaN	NaN	NaN	NaN	NaN	NaN	NaN	NaN	NaN	NaN
138	1.37	-131.66129	1630.98059	-1234.40503	-160.90858	1629.13245	-1103.82971	-246.68929	1563.4469	-1258.51514	-270.91522	1561.85388	-1129.6521	-266.14474	1412.19702	-1193.66345	-288.3537	1100.552	-1186.96265	-142.16895	1341.00562	-1188.67517	-92.64621	1176.59473	-1195.66333	-312.18301	1238.54431	-1095.78406	-185.81169	1379.01526	-1343.49365	-168.10378	1186.52539	-1415.04578	-136.75793	1068.33704	-1425.87036	-63.27623	962.14478	-1418.75354	4.99229	868.13513	-1380.27527	-19.71035	856.72009	-1428.78333	34.86497	794.20313	-1415.66003	-189.51405	1365.6781	-1030.49048	-200.22983	1143.96313	-956.28302	-192.73273	1031.14978	-942.70422	-188.22978	894.38812	-938.08313	-167.47873	795.38165	-972.02905	-197.99649	794.34918	-927.03308	-186.64427	719.31842	-938.79462	-125.57954	934.50537	-1307.19824	-112.55164	942.7561	-1071.0614	-283.26703	961.81909	-1250.09253	-273.91647	972.72656	-1101.29565	-201.41409	629.07434	-1350.41028	-212.68596	449.51395	-1326.82776	-363.53259	317.97946	-1313.33752	-507.40982	171.65422	-1260.18164	-553.45886	185.29585	-1221.43396	-449.50278	35.32621	-1218.18689	-146.95694	645.67993	-1033.13269	-110.43962	469.03	-1074.67358	-128.59036	280.68921	-1074.24451	-120.78854	65.7903	-1128.59949	-163.47626	32.97037	-1179.90649	22.90926	31.78148	-1149.41064	-233.54189	1672.2085	-1203.68872	NaN	NaN	NaN	NaN	NaN	NaN	NaN	NaN	NaN	NaN	NaN	NaN	NaN	NaN	NaN	NaN	NaN	NaN	NaN	NaN	NaN	NaN	NaN	NaN	NaN	NaN	NaN	NaN	NaN	NaN	NaN	NaN	NaN
